<svg width="524" height="411" viewBox="0 0 524 411" fill="none" xmlns="http://www.w3.org/2000/svg">
<g filter="url(#filter0_dd_201_3150)">
<g filter="url(#filter1_b_201_3150)">
<rect x="31" y="21" width="462" height="334" rx="10" fill="#F6F6F6"/>
<rect x="30.75" y="20.75" width="462.5" height="334.5" rx="10.25" stroke="black" stroke-opacity="0.12" stroke-width="0.5"/>
</g>
<g filter="url(#filter2_di_201_3150)">
<path d="M31 37C31 31.3995 31 28.5992 32.0899 26.4601C33.0487 24.5785 34.5785 23.0487 36.4601 22.0899C38.5992 21 41.3995 21 47 21H477C482.601 21 485.401 21 487.54 22.0899C489.422 23.0487 490.951 24.5785 491.91 26.4601C493 28.5992 493 31.3995 493 37V49H31V37Z" fill="white"/>
<path fill-rule="evenodd" clip-rule="evenodd" d="M45 41C48.3137 41 51 38.3137 51 35C51 31.6863 48.3137 29 45 29C41.6863 29 39 31.6863 39 35C39 38.3137 41.6863 41 45 41Z" fill="#EC6A5E"/>
<path d="M50.75 35C50.75 38.1756 48.1756 40.75 45 40.75C41.8244 40.75 39.25 38.1756 39.25 35C39.25 31.8244 41.8244 29.25 45 29.25C48.1756 29.25 50.75 31.8244 50.75 35Z" stroke="black" stroke-opacity="0.12" stroke-width="0.5"/>
<path fill-rule="evenodd" clip-rule="evenodd" d="M65 41C68.3137 41 71 38.3137 71 35C71 31.6863 68.3137 29 65 29C61.6863 29 59 31.6863 59 35C59 38.3137 61.6863 41 65 41Z" fill="#F5BF4F"/>
<path d="M70.75 35C70.75 38.1756 68.1756 40.75 65 40.75C61.8244 40.75 59.25 38.1756 59.25 35C59.25 31.8244 61.8244 29.25 65 29.25C68.1756 29.25 70.75 31.8244 70.75 35Z" stroke="black" stroke-opacity="0.12" stroke-width="0.5"/>
<path fill-rule="evenodd" clip-rule="evenodd" d="M85 41C88.3137 41 91 38.3137 91 35C91 31.6863 88.3137 29 85 29C81.6863 29 79 31.6863 79 35C79 38.3137 81.6863 41 85 41Z" fill="#61C554"/>
<path d="M90.75 35C90.75 38.1756 88.1756 40.75 85 40.75C81.8244 40.75 79.25 38.1756 79.25 35C79.25 31.8244 81.8244 29.25 85 29.25C88.1756 29.25 90.75 31.8244 90.75 35Z" stroke="black" stroke-opacity="0.12" stroke-width="0.5"/>
</g>
<path d="M179.097 40H177.269L180.598 30.5455H182.712L186.045 40H184.217L181.692 32.4844H181.618L179.097 40ZM179.157 36.293H184.143V37.6687H179.157V36.293ZM190.667 32.9091V34.2017H186.476V32.9091H190.667ZM187.524 40V32.2397C187.524 31.7627 187.622 31.3656 187.819 31.0487C188.019 30.7317 188.287 30.4947 188.622 30.3377C188.958 30.1808 189.33 30.1023 189.74 30.1023C190.029 30.1023 190.286 30.1254 190.51 30.1715C190.735 30.2177 190.901 30.2592 191.009 30.2962L190.677 31.5888C190.606 31.5672 190.517 31.5457 190.409 31.5241C190.301 31.4995 190.181 31.4872 190.049 31.4872C189.738 31.4872 189.518 31.5626 189.389 31.7134C189.262 31.8612 189.199 32.0735 189.199 32.3505V40H187.524ZM195.516 32.9091V34.2017H191.324V32.9091H195.516ZM192.372 40V32.2397C192.372 31.7627 192.47 31.3656 192.667 31.0487C192.867 30.7317 193.135 30.4947 193.471 30.3377C193.806 30.1808 194.179 30.1023 194.588 30.1023C194.877 30.1023 195.134 30.1254 195.359 30.1715C195.584 30.2177 195.75 30.2592 195.857 30.2962L195.525 31.5888C195.454 31.5672 195.365 31.5457 195.257 31.5241C195.15 31.4995 195.03 31.4872 194.897 31.4872C194.586 31.4872 194.366 31.5626 194.237 31.7134C194.111 31.8612 194.048 32.0735 194.048 32.3505V40H192.372ZM198.572 40.1431C198.123 40.1431 197.718 40.0631 197.358 39.9031C197.001 39.7399 196.718 39.4999 196.508 39.1829C196.302 38.8659 196.199 38.475 196.199 38.0103C196.199 37.6102 196.273 37.2794 196.421 37.0178C196.568 36.7562 196.77 36.5469 197.025 36.3899C197.281 36.233 197.569 36.1145 197.889 36.0344C198.212 35.9513 198.546 35.8913 198.89 35.8544C199.306 35.8113 199.643 35.7728 199.901 35.739C200.16 35.7021 200.348 35.6467 200.465 35.5728C200.585 35.4959 200.645 35.3774 200.645 35.2173V35.1896C200.645 34.8419 200.542 34.5726 200.335 34.3817C200.129 34.1909 199.832 34.0955 199.444 34.0955C199.035 34.0955 198.71 34.1848 198.47 34.3633C198.233 34.5418 198.073 34.7526 197.99 34.9957L196.43 34.7741C196.553 34.3433 196.756 33.9832 197.039 33.6939C197.322 33.4015 197.669 33.183 198.078 33.0384C198.487 32.8906 198.94 32.8168 199.435 32.8168C199.777 32.8168 200.117 32.8568 200.455 32.9368C200.794 33.0168 201.103 33.1491 201.383 33.3338C201.663 33.5154 201.888 33.7631 202.057 34.0771C202.23 34.391 202.316 34.7834 202.316 35.2543V40H200.709V39.0259H200.654C200.552 39.2229 200.409 39.4076 200.225 39.5799C200.043 39.7492 199.814 39.8861 199.537 39.9908C199.263 40.0923 198.941 40.1431 198.572 40.1431ZM199.006 38.9151C199.341 38.9151 199.632 38.849 199.878 38.7166C200.125 38.5812 200.314 38.4027 200.446 38.1811C200.582 37.9595 200.649 37.7179 200.649 37.4563V36.6207C200.597 36.6638 200.508 36.7038 200.382 36.7408C200.258 36.7777 200.12 36.81 199.966 36.8377C199.812 36.8654 199.66 36.89 199.509 36.9116C199.358 36.9331 199.227 36.9516 199.117 36.967C198.867 37.0008 198.644 37.0562 198.447 37.1332C198.25 37.2101 198.095 37.3178 197.981 37.4563C197.867 37.5917 197.81 37.7672 197.81 37.9826C197.81 38.2904 197.922 38.5227 198.147 38.6797C198.372 38.8366 198.658 38.9151 199.006 38.9151ZM205.985 40.1431C205.535 40.1431 205.131 40.0631 204.771 39.9031C204.414 39.7399 204.13 39.4999 203.921 39.1829C203.715 38.8659 203.612 38.475 203.612 38.0103C203.612 37.6102 203.686 37.2794 203.833 37.0178C203.981 36.7562 204.183 36.5469 204.438 36.3899C204.694 36.233 204.981 36.1145 205.301 36.0344C205.625 35.9513 205.959 35.8913 206.303 35.8544C206.719 35.8113 207.056 35.7728 207.314 35.739C207.573 35.7021 207.761 35.6467 207.877 35.5728C207.997 35.4959 208.058 35.3774 208.058 35.2173V35.1896C208.058 34.8419 207.954 34.5726 207.748 34.3817C207.542 34.1909 207.245 34.0955 206.857 34.0955C206.448 34.0955 206.123 34.1848 205.883 34.3633C205.646 34.5418 205.486 34.7526 205.403 34.9957L203.843 34.7741C203.966 34.3433 204.169 33.9832 204.452 33.6939C204.735 33.4015 205.081 33.183 205.491 33.0384C205.9 32.8906 206.352 32.8168 206.848 32.8168C207.19 32.8168 207.53 32.8568 207.868 32.9368C208.207 33.0168 208.516 33.1491 208.796 33.3338C209.076 33.5154 209.301 33.7631 209.47 34.0771C209.642 34.391 209.729 34.7834 209.729 35.2543V40H208.122V39.0259H208.067C207.965 39.2229 207.822 39.4076 207.637 39.5799C207.456 39.7492 207.227 39.8861 206.95 39.9908C206.676 40.0923 206.354 40.1431 205.985 40.1431ZM206.419 38.9151C206.754 38.9151 207.045 38.849 207.291 38.7166C207.537 38.5812 207.727 38.4027 207.859 38.1811C207.994 37.9595 208.062 37.7179 208.062 37.4563V36.6207C208.01 36.6638 207.921 36.7038 207.794 36.7408C207.671 36.7777 207.533 36.81 207.379 36.8377C207.225 36.8654 207.073 36.89 206.922 36.9116C206.771 36.9331 206.64 36.9516 206.529 36.967C206.28 37.0008 206.057 37.0562 205.86 37.1332C205.663 37.2101 205.508 37.3178 205.394 37.4563C205.28 37.5917 205.223 37.7672 205.223 37.9826C205.223 38.2904 205.335 38.5227 205.56 38.6797C205.785 38.8366 206.071 38.9151 206.419 38.9151ZM213.028 35.8452V40H211.357V32.9091H212.954V34.114H213.037C213.201 33.717 213.461 33.4015 213.818 33.1676C214.178 32.9337 214.622 32.8168 215.152 32.8168C215.641 32.8168 216.067 32.9214 216.431 33.1307C216.797 33.34 217.08 33.6431 217.28 34.0401C217.483 34.4371 217.583 34.9188 217.58 35.4851V40H215.909V35.7436C215.909 35.2696 215.786 34.8988 215.54 34.631C215.296 34.3633 214.959 34.2294 214.529 34.2294C214.236 34.2294 213.976 34.294 213.748 34.4233C213.524 34.5495 213.347 34.7326 213.218 34.9727C213.091 35.2127 213.028 35.5036 213.028 35.8452ZM220.644 30.5455V31.4872C220.644 31.758 220.592 32.0397 220.487 32.332C220.386 32.6213 220.246 32.8983 220.067 33.163C219.889 33.4246 219.686 33.6493 219.458 33.837L218.682 33.3338C218.851 33.0784 218.999 32.8029 219.125 32.5075C219.252 32.2089 219.315 31.8719 219.315 31.4964V30.5455H220.644ZM226.633 34.7834L225.109 34.9496C225.066 34.7957 224.991 34.651 224.883 34.5156C224.779 34.3802 224.637 34.271 224.458 34.1879C224.28 34.1048 224.061 34.0632 223.803 34.0632C223.455 34.0632 223.163 34.1386 222.926 34.2894C222.692 34.4402 222.577 34.6357 222.58 34.8757C222.577 35.0819 222.652 35.2496 222.806 35.3789C222.963 35.5082 223.221 35.6143 223.581 35.6974L224.791 35.956C225.462 36.1006 225.96 36.3299 226.287 36.6438C226.616 36.9577 226.782 37.3686 226.785 37.8764C226.782 38.3227 226.651 38.7166 226.393 39.0582C226.137 39.3968 225.782 39.6615 225.326 39.8523C224.871 40.0431 224.348 40.1385 223.757 40.1385C222.889 40.1385 222.19 39.9569 221.661 39.5938C221.132 39.2275 220.816 38.7182 220.715 38.0657L222.344 37.9087C222.418 38.2288 222.575 38.4704 222.815 38.6335C223.055 38.7966 223.367 38.8782 223.752 38.8782C224.149 38.8782 224.468 38.7966 224.708 38.6335C224.951 38.4704 225.072 38.2688 225.072 38.0288C225.072 37.8256 224.994 37.6579 224.837 37.5256C224.683 37.3932 224.443 37.2917 224.117 37.2209L222.907 36.967C222.227 36.8254 221.724 36.5869 221.398 36.2514C221.072 35.9129 220.91 35.4851 220.913 34.968C220.91 34.531 221.028 34.1525 221.269 33.8324C221.512 33.5092 221.849 33.2599 222.28 33.0845C222.713 32.906 223.214 32.8168 223.78 32.8168C224.611 32.8168 225.265 32.9937 225.742 33.3477C226.222 33.7016 226.519 34.1802 226.633 34.7834ZM231.358 40V30.5455H234.903C235.629 30.5455 236.239 30.6809 236.731 30.9517C237.227 31.2225 237.601 31.5949 237.853 32.0689C238.109 32.5398 238.236 33.0753 238.236 33.6754C238.236 34.2817 238.109 34.8203 237.853 35.2912C237.598 35.7621 237.221 36.1329 236.722 36.4038C236.223 36.6715 235.609 36.8054 234.88 36.8054H232.53V35.3974H234.649C235.074 35.3974 235.422 35.3235 235.693 35.1758C235.963 35.0281 236.163 34.8249 236.293 34.5664C236.425 34.3079 236.491 34.0109 236.491 33.6754C236.491 33.34 236.425 33.0445 236.293 32.7891C236.163 32.5336 235.962 32.3351 235.688 32.1935C235.417 32.0489 235.068 31.9766 234.64 31.9766H233.07V40H231.358ZM242.59 40.1385C241.897 40.1385 241.297 39.9862 240.789 39.6815C240.281 39.3768 239.887 38.9505 239.607 38.4027C239.33 37.8549 239.192 37.2147 239.192 36.4822C239.192 35.7498 239.33 35.1081 239.607 34.5572C239.887 34.0063 240.281 33.5785 240.789 33.2738C241.297 32.9691 241.897 32.8168 242.59 32.8168C243.282 32.8168 243.882 32.9691 244.39 33.2738C244.898 33.5785 245.29 34.0063 245.567 34.5572C245.847 35.1081 245.987 35.7498 245.987 36.4822C245.987 37.2147 245.847 37.8549 245.567 38.4027C245.29 38.9505 244.898 39.3768 244.39 39.6815C243.882 39.9862 243.282 40.1385 242.59 40.1385ZM242.599 38.7997C242.974 38.7997 243.288 38.6966 243.541 38.4904C243.793 38.2811 243.981 38.0011 244.104 37.6502C244.23 37.2994 244.293 36.9085 244.293 36.4776C244.293 36.0437 244.23 35.6513 244.104 35.3004C243.981 34.9465 243.793 34.6649 243.541 34.4556C243.288 34.2463 242.974 34.1417 242.599 34.1417C242.214 34.1417 241.894 34.2463 241.639 34.4556C241.386 34.6649 241.197 34.9465 241.071 35.3004C240.948 35.6513 240.886 36.0437 240.886 36.4776C240.886 36.9085 240.948 37.2994 241.071 37.6502C241.197 38.0011 241.386 38.2811 241.639 38.4904C241.894 38.6966 242.214 38.7997 242.599 38.7997ZM247.354 40V32.9091H248.974V34.0909H249.048C249.177 33.6816 249.399 33.3661 249.713 33.1445C250.03 32.9199 250.391 32.8075 250.798 32.8075C250.89 32.8075 250.993 32.8121 251.107 32.8214C251.224 32.8275 251.321 32.8383 251.398 32.8537V34.391C251.327 34.3664 251.215 34.3448 251.061 34.3263C250.91 34.3048 250.764 34.294 250.622 34.294C250.317 34.294 250.044 34.3602 249.8 34.4925C249.56 34.6218 249.371 34.8018 249.233 35.0327C249.094 35.2635 249.025 35.5297 249.025 35.8313V40H247.354ZM256.378 32.9091V34.2017H252.301V32.9091H256.378ZM253.308 31.2102H254.979V37.8672C254.979 38.0919 255.013 38.2642 255.08 38.3842C255.151 38.5012 255.244 38.5812 255.357 38.6243C255.471 38.6674 255.597 38.6889 255.736 38.6889C255.841 38.6889 255.936 38.6812 256.022 38.6658C256.111 38.6504 256.179 38.6366 256.225 38.6243L256.507 39.9308C256.418 39.9615 256.29 39.9954 256.124 40.0323C255.961 40.0692 255.761 40.0908 255.524 40.0969C255.105 40.1093 254.728 40.0462 254.393 39.9077C254.057 39.7661 253.791 39.5476 253.594 39.2521C253.4 38.9567 253.305 38.5874 253.308 38.1442V31.2102ZM261.315 32.9091V34.2017H257.123V32.9091H261.315ZM258.171 40V32.2397C258.171 31.7627 258.27 31.3656 258.467 31.0487C258.667 30.7317 258.934 30.4947 259.27 30.3377C259.605 30.1808 259.978 30.1023 260.387 30.1023C260.676 30.1023 260.933 30.1254 261.158 30.1715C261.383 30.2177 261.549 30.2592 261.657 30.2962L261.324 31.5888C261.253 31.5672 261.164 31.5457 261.056 31.5241C260.949 31.4995 260.829 31.4872 260.696 31.4872C260.385 31.4872 260.165 31.5626 260.036 31.7134C259.91 31.8612 259.847 32.0735 259.847 32.3505V40H258.171ZM265.398 40.1385C264.706 40.1385 264.106 39.9862 263.598 39.6815C263.09 39.3768 262.696 38.9505 262.416 38.4027C262.139 37.8549 262 37.2147 262 36.4822C262 35.7498 262.139 35.1081 262.416 34.5572C262.696 34.0063 263.09 33.5785 263.598 33.2738C264.106 32.9691 264.706 32.8168 265.398 32.8168C266.091 32.8168 266.691 32.9691 267.199 33.2738C267.706 33.5785 268.099 34.0063 268.376 34.5572C268.656 35.1081 268.796 35.7498 268.796 36.4822C268.796 37.2147 268.656 37.8549 268.376 38.4027C268.099 38.9505 267.706 39.3768 267.199 39.6815C266.691 39.9862 266.091 40.1385 265.398 40.1385ZM265.407 38.7997C265.783 38.7997 266.097 38.6966 266.349 38.4904C266.601 38.2811 266.789 38.0011 266.912 37.6502C267.039 37.2994 267.102 36.9085 267.102 36.4776C267.102 36.0437 267.039 35.6513 266.912 35.3004C266.789 34.9465 266.601 34.6649 266.349 34.4556C266.097 34.2463 265.783 34.1417 265.407 34.1417C265.023 34.1417 264.703 34.2463 264.447 34.4556C264.195 34.6649 264.005 34.9465 263.879 35.3004C263.756 35.6513 263.695 36.0437 263.695 36.4776C263.695 36.9085 263.756 37.2994 263.879 37.6502C264.005 38.0011 264.195 38.2811 264.447 38.4904C264.703 38.6966 265.023 38.7997 265.407 38.7997ZM271.833 30.5455V40H270.162V30.5455H271.833ZM273.5 40V32.9091H275.171V40H273.5ZM274.34 31.9027C274.075 31.9027 273.848 31.815 273.657 31.6396C273.466 31.4611 273.371 31.2472 273.371 30.9979C273.371 30.7455 273.466 30.5316 273.657 30.3562C273.848 30.1777 274.075 30.0884 274.34 30.0884C274.608 30.0884 274.836 30.1777 275.023 30.3562C275.214 30.5316 275.31 30.7455 275.31 30.9979C275.31 31.2472 275.214 31.4611 275.023 31.6396C274.836 31.815 274.608 31.9027 274.34 31.9027ZM279.931 40.1385C279.238 40.1385 278.638 39.9862 278.13 39.6815C277.622 39.3768 277.228 38.9505 276.948 38.4027C276.671 37.8549 276.533 37.2147 276.533 36.4822C276.533 35.7498 276.671 35.1081 276.948 34.5572C277.228 34.0063 277.622 33.5785 278.13 33.2738C278.638 32.9691 279.238 32.8168 279.931 32.8168C280.623 32.8168 281.223 32.9691 281.731 33.2738C282.239 33.5785 282.631 34.0063 282.908 34.5572C283.188 35.1081 283.328 35.7498 283.328 36.4822C283.328 37.2147 283.188 37.8549 282.908 38.4027C282.631 38.9505 282.239 39.3768 281.731 39.6815C281.223 39.9862 280.623 40.1385 279.931 40.1385ZM279.94 38.7997C280.315 38.7997 280.629 38.6966 280.882 38.4904C281.134 38.2811 281.322 38.0011 281.445 37.6502C281.571 37.2994 281.634 36.9085 281.634 36.4776C281.634 36.0437 281.571 35.6513 281.445 35.3004C281.322 34.9465 281.134 34.6649 280.882 34.4556C280.629 34.2463 280.315 34.1417 279.94 34.1417C279.555 34.1417 279.235 34.2463 278.98 34.4556C278.727 34.6649 278.538 34.9465 278.412 35.3004C278.289 35.6513 278.227 36.0437 278.227 36.4776C278.227 36.9085 278.289 37.2994 278.412 37.6502C278.538 38.0011 278.727 38.2811 278.98 38.4904C279.235 38.6966 279.555 38.7997 279.94 38.7997ZM289.931 40L287.263 30.5455H289.105L290.808 37.4933H290.896L292.715 30.5455H294.39L296.214 37.4979H296.297L298.001 30.5455H299.842L297.174 40H295.485L293.592 33.3661H293.518L291.621 40H289.931ZM303.32 40.1385C302.609 40.1385 301.995 39.9908 301.478 39.6953C300.964 39.3968 300.568 38.9751 300.291 38.4304C300.014 37.8826 299.876 37.2378 299.876 36.4961C299.876 35.7667 300.014 35.1265 300.291 34.5756C300.571 34.0217 300.962 33.5908 301.464 33.283C301.966 32.9722 302.555 32.8168 303.232 32.8168C303.669 32.8168 304.082 32.8875 304.469 33.0291C304.86 33.1676 305.205 33.383 305.503 33.6754C305.805 33.9678 306.042 34.3402 306.214 34.7926C306.387 35.242 306.473 35.7775 306.473 36.3991V36.9116H300.661V35.7852H304.871C304.868 35.4651 304.799 35.1804 304.663 34.9311C304.528 34.6787 304.338 34.4802 304.095 34.3356C303.855 34.1909 303.575 34.1186 303.255 34.1186C302.914 34.1186 302.613 34.2017 302.355 34.3679C302.096 34.531 301.895 34.7464 301.75 35.0142C301.609 35.2789 301.536 35.5697 301.533 35.8867V36.87C301.533 37.2824 301.609 37.6364 301.759 37.9318C301.91 38.2242 302.121 38.4489 302.392 38.6058C302.663 38.7597 302.98 38.8366 303.343 38.8366C303.586 38.8366 303.806 38.8028 304.003 38.7351C304.2 38.6643 304.371 38.5612 304.515 38.4258C304.66 38.2904 304.769 38.1226 304.843 37.9226L306.404 38.098C306.305 38.5104 306.117 38.8705 305.84 39.1783C305.566 39.483 305.216 39.7199 304.788 39.8892C304.36 40.0554 303.871 40.1385 303.32 40.1385ZM307.909 40V30.5455H309.58V34.0817H309.649C309.735 33.9093 309.857 33.7262 310.014 33.5323C310.171 33.3353 310.383 33.1676 310.651 33.0291C310.918 32.8875 311.26 32.8168 311.676 32.8168C312.223 32.8168 312.717 32.9568 313.157 33.2369C313.601 33.5138 313.951 33.9247 314.21 34.4695C314.472 35.0111 314.602 35.6759 314.602 36.4638C314.602 37.2424 314.475 37.9041 314.219 38.4489C313.964 38.9936 313.616 39.4091 313.176 39.6953C312.736 39.9815 312.237 40.1246 311.68 40.1246C311.274 40.1246 310.937 40.0569 310.669 39.9215C310.401 39.7861 310.186 39.623 310.023 39.4322C309.863 39.2383 309.738 39.0552 309.649 38.8828H309.552V40H307.909ZM309.547 36.4545C309.547 36.9131 309.612 37.3147 309.741 37.6594C309.874 38.0041 310.063 38.2734 310.309 38.4673C310.558 38.6581 310.86 38.7536 311.214 38.7536C311.583 38.7536 311.893 38.6551 312.142 38.4581C312.391 38.258 312.579 37.9857 312.705 37.641C312.834 37.2932 312.899 36.8977 312.899 36.4545C312.899 36.0144 312.836 35.6236 312.71 35.282C312.583 34.9403 312.396 34.6726 312.146 34.4787C311.897 34.2848 311.586 34.1879 311.214 34.1879C310.857 34.1879 310.554 34.2817 310.304 34.4695C310.055 34.6572 309.866 34.9203 309.737 35.2589C309.61 35.5974 309.547 35.996 309.547 36.4545ZM321.576 34.7834L320.052 34.9496C320.009 34.7957 319.934 34.651 319.826 34.5156C319.721 34.3802 319.58 34.271 319.401 34.1879C319.223 34.1048 319.004 34.0632 318.746 34.0632C318.398 34.0632 318.105 34.1386 317.868 34.2894C317.635 34.4402 317.519 34.6357 317.522 34.8757C317.519 35.0819 317.595 35.2496 317.748 35.3789C317.905 35.5082 318.164 35.6143 318.524 35.6974L319.734 35.956C320.404 36.1006 320.903 36.3299 321.229 36.6438C321.559 36.9577 321.725 37.3686 321.728 37.8764C321.725 38.3227 321.594 38.7166 321.335 39.0582C321.08 39.3968 320.725 39.6615 320.269 39.8523C319.814 40.0431 319.29 40.1385 318.699 40.1385C317.832 40.1385 317.133 39.9569 316.604 39.5938C316.074 39.2275 315.759 38.7182 315.657 38.0657L317.287 37.9087C317.361 38.2288 317.518 38.4704 317.758 38.6335C317.998 38.7966 318.31 38.8782 318.695 38.8782C319.092 38.8782 319.41 38.7966 319.65 38.6335C319.894 38.4704 320.015 38.2688 320.015 38.0288C320.015 37.8256 319.937 37.6579 319.78 37.5256C319.626 37.3932 319.386 37.2917 319.06 37.2209L317.85 36.967C317.17 36.8254 316.667 36.5869 316.34 36.2514C316.014 35.9129 315.853 35.4851 315.856 34.968C315.853 34.531 315.971 34.1525 316.211 33.8324C316.454 33.5092 316.791 33.2599 317.222 33.0845C317.656 32.906 318.156 32.8168 318.723 32.8168C319.554 32.8168 320.208 32.9937 320.685 33.3477C321.165 33.7016 321.462 34.1802 321.576 34.7834ZM323.054 40V32.9091H324.725V40H323.054ZM323.894 31.9027C323.629 31.9027 323.402 31.815 323.211 31.6396C323.02 31.4611 322.925 31.2472 322.925 30.9979C322.925 30.7455 323.02 30.5316 323.211 30.3562C323.402 30.1777 323.629 30.0884 323.894 30.0884C324.162 30.0884 324.39 30.1777 324.577 30.3562C324.768 30.5316 324.864 30.7455 324.864 30.9979C324.864 31.2472 324.768 31.4611 324.577 31.6396C324.39 31.815 324.162 31.9027 323.894 31.9027ZM329.932 32.9091V34.2017H325.856V32.9091H329.932ZM326.862 31.2102H328.534V37.8672C328.534 38.0919 328.567 38.2642 328.635 38.3842C328.706 38.5012 328.798 38.5812 328.912 38.6243C329.026 38.6674 329.152 38.6889 329.291 38.6889C329.395 38.6889 329.491 38.6812 329.577 38.6658C329.666 38.6504 329.734 38.6366 329.78 38.6243L330.062 39.9308C329.972 39.9615 329.845 39.9954 329.678 40.0323C329.515 40.0692 329.315 40.0908 329.078 40.0969C328.66 40.1093 328.283 40.0462 327.947 39.9077C327.612 39.7661 327.346 39.5476 327.149 39.2521C326.955 38.9567 326.859 38.5874 326.862 38.1442V31.2102ZM334.341 40.1385C333.63 40.1385 333.016 39.9908 332.499 39.6953C331.985 39.3968 331.59 38.9751 331.313 38.4304C331.036 37.8826 330.897 37.2378 330.897 36.4961C330.897 35.7667 331.036 35.1265 331.313 34.5756C331.593 34.0217 331.984 33.5908 332.485 33.283C332.987 32.9722 333.576 32.8168 334.253 32.8168C334.69 32.8168 335.103 32.8875 335.491 33.0291C335.881 33.1676 336.226 33.383 336.525 33.6754C336.826 33.9678 337.063 34.3402 337.236 34.7926C337.408 35.242 337.494 35.7775 337.494 36.3991V36.9116H331.682V35.7852H335.892C335.889 35.4651 335.82 35.1804 335.684 34.9311C335.549 34.6787 335.36 34.4802 335.117 34.3356C334.877 34.1909 334.596 34.1186 334.276 34.1186C333.935 34.1186 333.635 34.2017 333.376 34.3679C333.118 34.531 332.916 34.7464 332.771 35.0142C332.63 35.2789 332.558 35.5697 332.554 35.8867V36.87C332.554 37.2824 332.63 37.6364 332.781 37.9318C332.931 38.2242 333.142 38.4489 333.413 38.6058C333.684 38.7597 334.001 38.8366 334.364 38.8366C334.607 38.8366 334.827 38.8028 335.024 38.7351C335.221 38.6643 335.392 38.5612 335.537 38.4258C335.681 38.2904 335.791 38.1226 335.864 37.9226L337.425 38.098C337.326 38.5104 337.139 38.8705 336.862 39.1783C336.588 39.483 336.237 39.7199 335.809 39.8892C335.381 40.0554 334.892 40.1385 334.341 40.1385Z" fill="black"/>
</g>
<defs>
<filter id="filter0_dd_201_3150" x="0.5" y="0.5" width="523" height="410" filterUnits="userSpaceOnUse" color-interpolation-filters="sRGB">
<feFlood flood-opacity="0" result="BackgroundImageFix"/>
<feColorMatrix in="SourceAlpha" type="matrix" values="0 0 0 0 0 0 0 0 0 0 0 0 0 0 0 0 0 0 127 0" result="hardAlpha"/>
<feOffset dy="25"/>
<feGaussianBlur stdDeviation="15"/>
<feComposite in2="hardAlpha" operator="out"/>
<feColorMatrix type="matrix" values="0 0 0 0 0 0 0 0 0 0 0 0 0 0 0 0 0 0 0.35 0"/>
<feBlend mode="normal" in2="BackgroundImageFix" result="effect1_dropShadow_201_3150"/>
<feColorMatrix in="SourceAlpha" type="matrix" values="0 0 0 0 0 0 0 0 0 0 0 0 0 0 0 0 0 0 127 0" result="hardAlpha"/>
<feOffset/>
<feGaussianBlur stdDeviation="10"/>
<feComposite in2="hardAlpha" operator="out"/>
<feColorMatrix type="matrix" values="0 0 0 0 0 0 0 0 0 0 0 0 0 0 0 0 0 0 0.15 0"/>
<feBlend mode="normal" in2="effect1_dropShadow_201_3150" result="effect2_dropShadow_201_3150"/>
<feBlend mode="normal" in="SourceGraphic" in2="effect2_dropShadow_201_3150" result="shape"/>
</filter>
<filter id="filter1_b_201_3150" x="-49.5" y="-59.5" width="623" height="495" filterUnits="userSpaceOnUse" color-interpolation-filters="sRGB">
<feFlood flood-opacity="0" result="BackgroundImageFix"/>
<feGaussianBlur in="BackgroundImageFix" stdDeviation="40"/>
<feComposite in2="SourceAlpha" operator="in" result="effect1_backgroundBlur_201_3150"/>
<feBlend mode="normal" in="SourceGraphic" in2="effect1_backgroundBlur_201_3150" result="shape"/>
</filter>
<filter id="filter2_di_201_3150" x="31" y="21" width="462" height="28.5" filterUnits="userSpaceOnUse" color-interpolation-filters="sRGB">
<feFlood flood-opacity="0" result="BackgroundImageFix"/>
<feColorMatrix in="SourceAlpha" type="matrix" values="0 0 0 0 0 0 0 0 0 0 0 0 0 0 0 0 0 0 127 0" result="hardAlpha"/>
<feOffset dy="0.5"/>
<feColorMatrix type="matrix" values="0 0 0 0 0 0 0 0 0 0 0 0 0 0 0 0 0 0 0.15 0"/>
<feBlend mode="normal" in2="BackgroundImageFix" result="effect1_dropShadow_201_3150"/>
<feBlend mode="normal" in="SourceGraphic" in2="effect1_dropShadow_201_3150" result="shape"/>
<feColorMatrix in="SourceAlpha" type="matrix" values="0 0 0 0 0 0 0 0 0 0 0 0 0 0 0 0 0 0 127 0" result="hardAlpha"/>
<feOffset dy="-0.5"/>
<feComposite in2="hardAlpha" operator="arithmetic" k2="-1" k3="1"/>
<feColorMatrix type="matrix" values="0 0 0 0 0 0 0 0 0 0 0 0 0 0 0 0 0 0 0.05 0"/>
<feBlend mode="normal" in2="shape" result="effect2_innerShadow_201_3150"/>
</filter>
</defs>
</svg>
