<?xml version="1.0" standalone="no"?>
<!DOCTYPE svg PUBLIC "-//W3C//DTD SVG 20010904//EN"
 "http://www.w3.org/TR/2001/REC-SVG-20010904/DTD/svg10.dtd">
<svg version="1.0" xmlns="http://www.w3.org/2000/svg"
 width="570.000000pt" height="570.000000pt" viewBox="0 0 570.000000 570.000000"
 preserveAspectRatio="xMidYMid meet">

<g transform="translate(0.000000,570.000000) scale(0.100000,-0.100000)"
fill="#000000" stroke="none">
<path d="M2597 5690 c-837 -81 -1576 -504 -2063 -1180 -263 -364 -433 -787
-506 -1255 -31 -203 -31 -607 0 -810 25 -160 77 -380 120 -505 321 -931 1072
-1622 2017 -1856 255 -63 386 -78 685 -78 299 0 430 15 685 78 1027 254 1827
1054 2081 2081 63 255 78 386 78 685 0 299 -15 430 -78 685 -126 506 -383 961
-751 1330 -434 434 -989 713 -1605 806 -153 23 -516 33 -663 19z m-356 -1510
c-33 -28 -92 -62 -98 -56 -2 2 0 13 5 26 5 14 26 30 53 41 65 26 79 23 40 -11z
m-541 -470 c0 -5 -5 -10 -11 -10 -5 0 -7 5 -4 10 3 6 8 10 11 10 2 0 4 -4 4
-10z m1405 -49 c124 -30 212 -66 281 -113 45 -30 62 -48 58 -58 -12 -31 -12
-67 2 -129 8 -35 13 -68 11 -75 -6 -16 17 -57 47 -85 14 -14 26 -29 26 -35 0
-6 11 -28 25 -48 34 -50 31 -61 -7 -39 -50 29 -184 37 -283 16 -80 -16 -110
-32 -120 -65 -6 -20 -64 -47 -119 -55 -21 -3 -42 -8 -47 -10 -4 -3 -1 -27 6
-53 8 -26 15 -82 15 -125 0 -57 7 -99 25 -153 25 -75 25 -75 6 -112 -10 -20
-28 -46 -40 -56 -32 -29 -99 -23 -165 14 -32 18 -77 33 -112 38 l-59 7 1 43
c0 23 -1 42 -3 42 -14 0 -118 -60 -166 -96 -86 -64 -110 -97 -102 -136 9 -41
22 -58 45 -58 10 0 23 -7 30 -15 7 -9 21 -13 31 -10 10 3 45 -1 77 -10 43 -11
68 -12 85 -6 31 12 84 6 157 -19 30 -10 68 -21 84 -25 52 -11 10 -22 -80 -21
-79 1 -84 0 -63 -14 12 -8 43 -20 68 -27 45 -12 44 -12 -26 -6 -61 5 -74 3
-79 -11 -10 -25 24 -86 54 -97 79 -30 132 -38 194 -27 35 6 73 12 86 13 13 2
35 11 50 21 26 18 31 20 50 23 5 0 14 12 20 26 9 19 19 25 42 25 23 0 33 7 45
30 21 40 55 41 55 3 -1 -37 -18 -57 -60 -71 -42 -15 -90 -59 -83 -77 13 -36
-60 -92 -159 -121 -34 -11 -47 -20 -50 -36 -2 -11 -16 -30 -31 -42 -25 -18
-41 -21 -129 -19 -55 1 -127 9 -160 18 -33 8 -67 15 -76 15 -15 0 -60 28 -161
98 -14 9 -43 33 -65 53 -40 35 -107 79 -120 79 -14 0 -5 -37 19 -75 13 -22 25
-48 25 -57 0 -9 5 -20 12 -24 7 -5 8 -2 3 7 -7 12 -6 12 6 0 11 -11 11 -14 1
-18 -28 -10 54 -101 127 -141 47 -25 119 -86 229 -192 101 -98 112 -128 66
-183 -25 -30 -27 -38 -24 -98 1 -27 -5 -43 -21 -57 -26 -25 -79 -46 -79 -31 0
5 -13 9 -29 9 -17 0 -33 4 -36 10 -3 5 -18 10 -33 10 -15 0 -58 16 -96 35 -87
43 -108 47 -121 17 -5 -12 -15 -20 -21 -18 -5 2 -26 -9 -45 -25 -19 -16 -40
-34 -47 -39 -7 -6 -10 -15 -7 -21 4 -5 -1 -9 -10 -9 -32 0 -63 32 -91 93 -23
53 -28 81 -34 187 -8 141 4 201 45 223 13 6 38 31 58 54 38 46 40 58 57 261
l10 123 -34 67 c-18 37 -41 103 -51 147 -9 44 -21 95 -27 113 -10 33 -32 43
-41 18 -3 -8 -15 -20 -26 -26 -17 -8 -26 -5 -53 19 l-33 29 15 49 c8 26 14 69
14 96 -1 26 0 47 2 47 18 0 54 -27 58 -45 9 -35 35 -39 47 -7 18 46 49 251 59
392 11 143 35 241 74 295 12 17 35 52 50 78 39 68 81 113 149 159 104 70 221
116 367 142 57 10 278 -4 355 -23z m-1435 -88 c0 -10 -9 -31 -19 -46 l-18 -29
-7 27 c-5 19 -2 33 10 46 21 24 34 24 34 2z m-25 -274 c4 -6 5 -12 2 -15 -7
-7 -37 7 -37 17 0 13 27 11 35 -2z m-55 -58 c0 -5 -7 -11 -15 -15 -9 -3 -15 0
-15 9 0 8 7 15 15 15 8 0 15 -4 15 -9z m-5 -61 c3 -11 3 -24 0 -30 -9 -15 -45
-12 -45 4 0 44 33 63 45 26z m1927 -195 c33 -13 57 -39 71 -77 3 -10 2 -18 -3
-18 -6 0 -10 8 -11 18 0 10 -3 12 -6 5 -3 -9 -15 -7 -43 7 -22 11 -63 25 -92
31 -107 23 -114 49 -14 49 35 0 79 -7 98 -15z m-1946 -60 c-30 -28 -36 -30
-36 -13 0 21 43 59 54 48 6 -6 0 -18 -18 -35z m405 -84 c-23 -78 -42 -56 -20
23 8 28 14 35 21 28 8 -8 8 -23 -1 -51z m57 -135 c3 -20 0 -27 -10 -24 -7 3
-14 17 -16 32 -3 20 0 27 10 24 7 -3 14 -17 16 -32z m1228 -1 c82 -43 114 -44
209 -4 94 39 88 38 91 9 15 -136 9 -168 -39 -209 -16 -13 -33 -34 -38 -45 -5
-12 -13 -28 -18 -36 -6 -8 -23 -44 -39 -80 -41 -90 -51 -97 -87 -60 -15 16
-33 38 -39 48 -6 11 -25 39 -42 63 -16 24 -42 74 -58 110 -15 36 -43 81 -61
99 -19 19 -35 39 -35 46 0 23 54 94 71 94 10 0 48 -16 85 -35z m-132 -137 c24
-34 20 -65 -8 -70 -32 -6 -41 1 -50 35 -12 52 29 76 58 35z m-439 -84 c28 -31
54 -63 58 -71 5 -8 29 -23 53 -33 24 -11 44 -23 44 -27 0 -4 -26 -8 -57 -9
-32 -1 -94 -4 -138 -8 -59 -5 -87 -4 -105 6 -29 16 -37 51 -19 87 15 31 90
110 104 111 6 0 33 -25 60 -56z m540 -115 c9 -38 5 -41 -24 -26 -35 18 -48 42
-32 61 19 22 48 4 56 -35z m-1306 -773 c-7 -14 -16 -26 -20 -26 -16 0 -39 13
-39 22 0 9 62 39 68 33 1 -1 -3 -14 -9 -29z m-329 -103 c0 -3 -8 -15 -17 -26
-17 -18 -17 -19 20 -12 48 9 48 0 0 -16 -21 -6 -101 -43 -178 -81 -92 -46
-157 -72 -190 -75 -50 -6 -50 -6 -35 16 18 26 29 33 185 107 192 92 215 101
215 87z m-285 -93 c-3 -5 -12 -10 -18 -10 -7 0 -39 -14 -71 -30 -32 -17 -66
-30 -75 -30 -34 0 16 31 90 54 41 13 75 24 77 25 2 1 0 -3 -3 -9z"/>
<path d="M2409 3240 c-19 -10 -41 -26 -48 -34 -12 -14 -9 -16 28 -16 72 0 274
-81 253 -102 -5 -5 -58 -10 -118 -11 -90 -2 -117 -6 -154 -24 -84 -42 -88 -93
-6 -93 39 1 174 -55 175 -72 1 -7 -11 -11 -61 -22 -40 -9 -35 -22 17 -42 59
-22 151 -14 237 21 79 33 98 54 98 110 0 37 -5 48 -35 74 -41 36 -41 37 -15
44 20 5 27 41 12 63 -12 18 -80 49 -193 88 -120 41 -140 43 -190 16z m97 -199
c-3 -5 -18 -11 -33 -14 -16 -3 -39 -8 -53 -12 -18 -6 -22 -5 -15 3 6 6 28 16
50 21 54 12 57 12 51 2z m134 -91 c0 -5 -4 -10 -10 -10 -5 0 -10 5 -10 10 0 6
5 10 10 10 6 0 10 -4 10 -10z"/>
</g>
</svg>
